<svg width="38" height="38" viewBox="0 0 38 38" fill="none" xmlns="http://www.w3.org/2000/svg">
<path d="M15.9447 32.463C15.9446 32.2308 15.8935 32.0014 15.795 31.7911C15.6964 31.5809 15.5528 31.3949 15.3744 31.2463C15.1959 31.0977 14.987 30.9902 14.7623 30.9314C14.5377 30.8726 14.3029 30.8639 14.0745 30.9059C12.0018 31.2863 9.38481 31.3435 8.68899 29.3891C8.08227 27.8754 7.07728 26.5542 5.78055 25.5653C5.68803 25.515 5.59986 25.4571 5.51693 25.3921C5.40344 25.0928 5.20186 24.8349 4.93879 24.6524C4.67572 24.4699 4.36352 24.3715 4.04337 24.3701H4.03564C3.61701 24.3699 3.21536 24.5356 2.91862 24.8309C2.62187 25.1262 2.45421 25.5271 2.45231 25.9457C2.44612 27.2368 3.73639 28.064 4.25984 28.3439C4.87709 28.9641 5.37317 29.694 5.72257 30.4962C6.29932 32.1167 7.97542 34.5752 12.7935 34.2582C12.795 34.3139 12.7965 34.3665 12.7973 34.4144L12.8043 34.8381C12.8043 35.258 12.9711 35.6607 13.268 35.9576C13.5649 36.2546 13.9677 36.4214 14.3876 36.4214C14.8075 36.4214 15.2103 36.2546 15.5072 35.9576C15.8041 35.6607 15.9709 35.258 15.9709 34.8381L15.9632 34.334C15.9555 34.0339 15.9447 33.5994 15.9447 32.463ZM32.8341 8.51347C32.8843 8.31555 32.9338 8.09599 32.9771 7.84859C33.2332 6.08411 33.0099 4.28323 32.3308 2.63468C32.2451 2.41976 32.1134 2.22619 31.945 2.06753C31.7766 1.90887 31.5755 1.78897 31.3559 1.71623C30.7922 1.52604 28.7111 1.15185 24.7311 3.6954C21.4228 2.91686 17.9789 2.91686 14.6706 3.6954C10.7068 1.18911 8.63643 1.52921 8.07824 1.70857C7.85319 1.77836 7.64661 1.89763 7.47364 2.05763C7.30067 2.21762 7.16569 2.4143 7.0786 2.63323C6.38558 4.31344 6.16477 6.15105 6.44001 7.9476C6.47868 8.15015 6.52041 8.33726 6.56372 8.50887C5.25204 10.256 4.55338 12.387 4.57605 14.5716C4.57177 15.059 4.59423 15.5463 4.64331 16.0312C5.17214 23.3186 9.92214 25.5065 13.2318 26.258C13.163 26.4559 13.1004 26.6677 13.0447 26.8919C12.9455 27.2993 13.0119 27.7294 13.2293 28.0879C13.4468 28.4465 13.7975 28.7041 14.2046 28.8044C14.6117 28.9047 15.042 28.8394 15.4011 28.623C15.7602 28.4065 16.0188 28.0564 16.1201 27.6496C16.2209 27.122 16.4791 26.6374 16.8608 26.2595C17.0916 26.0575 17.2587 25.7927 17.3417 25.4975C17.4248 25.2022 17.4203 24.8892 17.3287 24.5964C17.2371 24.3037 17.0625 24.0439 16.8259 23.8486C16.5894 23.6533 16.3012 23.5309 15.9965 23.4964C10.5275 22.8718 8.15323 20.6437 7.79606 15.7406C7.75649 15.3522 7.73869 14.962 7.74272 14.5716C7.71731 13.0147 8.23169 11.4969 9.19848 10.2762C9.29562 10.149 9.39909 10.0267 9.5085 9.90976C9.70235 9.69285 9.83268 9.42672 9.88519 9.14059C9.9377 8.85445 9.91036 8.55939 9.80616 8.28778C9.69934 8.00203 9.6171 7.70769 9.56032 7.40797C9.43133 6.55568 9.47364 5.68623 9.68477 4.8505C11.0609 5.23917 12.356 5.87182 13.5085 6.71833C13.6991 6.84527 13.9148 6.92975 14.1409 6.96603C14.367 7.00232 14.5982 6.98956 14.8189 6.92863C18.019 6.06017 21.3928 6.06071 24.5926 6.93021C24.8146 6.99108 25.047 7.0031 25.2741 6.96547C25.5011 6.92783 25.7173 6.84143 25.9077 6.7122C27.0548 5.86217 28.3445 5.22386 29.716 4.82735C29.9262 5.64301 29.9733 6.49216 29.8544 7.32604C29.7971 7.65464 29.7075 7.97679 29.5869 8.28781C29.4827 8.55942 29.4554 8.85449 29.5079 9.14062C29.5604 9.42675 29.6907 9.69288 29.8846 9.90979C30.0067 10.0474 30.1289 10.1958 30.2387 10.335C31.1986 11.535 31.7043 13.0353 31.6667 14.5716C31.6695 14.9827 31.6497 15.3936 31.6071 15.8024C31.2585 20.6405 28.875 22.8702 23.3804 23.4964C23.0756 23.5311 22.7874 23.6537 22.5509 23.8492C22.3144 24.0446 22.1398 24.3046 22.0483 24.5975C21.9568 24.8904 21.9524 25.2035 22.0356 25.4989C22.1188 25.7942 22.286 26.059 22.5169 26.2611C22.9105 26.649 23.1693 27.1531 23.2552 27.699C23.3622 28.1229 23.4114 28.5593 23.4013 28.9963V32.6918C23.3858 33.717 23.3858 34.4854 23.3858 34.838C23.3858 35.2579 23.5526 35.6606 23.8496 35.9576C24.1465 36.2545 24.5492 36.4213 24.9692 36.4213C25.3891 36.4213 25.7918 36.2545 26.0887 35.9576C26.3857 35.6606 26.5525 35.2579 26.5525 34.838C26.5525 34.4947 26.5525 33.7417 26.568 32.7166V28.9963C26.5807 28.2962 26.4983 27.5976 26.3229 26.9197C26.2727 26.6972 26.2113 26.4774 26.1389 26.2611C28.5475 25.8609 30.736 24.6191 32.3149 22.7566C33.8937 20.894 34.7604 18.5317 34.7606 16.09C34.8128 15.5856 34.8371 15.0787 34.8333 14.5716C34.8685 12.3847 34.164 10.2499 32.8341 8.5135L32.8341 8.51347Z" fill="#FFFEEB"/>
</svg>
