<svg width="38" height="38" viewBox="0 0 38 38" fill="none" xmlns="http://www.w3.org/2000/svg">
<path d="M27.455 8.64502C27.0792 8.64502 26.7119 8.75645 26.3994 8.96523C26.087 9.174 25.8434 9.47074 25.6996 9.81792C25.5558 10.1651 25.5182 10.5471 25.5915 10.9157C25.6648 11.2843 25.8458 11.6228 26.1115 11.8885C26.3772 12.1542 26.7158 12.3352 27.0843 12.4085C27.4529 12.4818 27.8349 12.4442 28.1821 12.3004C28.5293 12.1566 28.826 11.9131 29.0348 11.6006C29.2436 11.2882 29.355 10.9208 29.355 10.545C29.355 10.0411 29.1548 9.55784 28.7985 9.20152C28.4422 8.8452 27.9589 8.64502 27.455 8.64502V8.64502ZM34.7383 12.4767C34.7075 11.163 34.4615 9.86324 34.01 8.62919C33.6074 7.57331 32.9808 6.61721 32.1733 5.82669C31.3893 5.01511 30.431 4.39247 29.3708 4.00585C28.14 3.54061 26.8388 3.28894 25.5233 3.26169C23.845 3.16669 23.3067 3.16669 19 3.16669C14.6933 3.16669 14.155 3.16669 12.4767 3.26169C11.1612 3.28894 9.85996 3.54061 8.62917 4.00585C7.57099 4.39638 6.61348 5.01849 5.82667 5.82669C5.0151 6.61072 4.39245 7.56905 4.00584 8.62919C3.54059 9.85998 3.28892 11.1612 3.26167 12.4767C3.16667 14.155 3.16667 14.6934 3.16667 19C3.16667 23.3067 3.16667 23.845 3.26167 25.5234C3.28892 26.8389 3.54059 28.1401 4.00584 29.3709C4.39245 30.431 5.0151 31.3893 5.82667 32.1734C6.61348 32.9815 7.57099 33.6037 8.62917 33.9942C9.85996 34.4594 11.1612 34.7111 12.4767 34.7384C14.155 34.8334 14.6933 34.8334 19 34.8334C23.3067 34.8334 23.845 34.8334 25.5233 34.7384C26.8388 34.7111 28.14 34.4594 29.3708 33.9942C30.431 33.6076 31.3893 32.9849 32.1733 32.1734C32.9844 31.3858 33.6115 30.4288 34.01 29.3709C34.4615 28.1368 34.7075 26.837 34.7383 25.5234C34.7383 23.845 34.8333 23.3067 34.8333 19C34.8333 14.6934 34.8333 14.155 34.7383 12.4767V12.4767ZM31.8883 25.3334C31.8768 26.3384 31.6948 27.3342 31.35 28.2784C31.0972 28.9674 30.6911 29.59 30.1625 30.0992C29.6489 30.6225 29.0276 31.0277 28.3417 31.2867C27.3975 31.6315 26.4017 31.8135 25.3967 31.825C23.8133 31.9042 23.2275 31.92 19.0633 31.92C14.8992 31.92 14.3133 31.92 12.73 31.825C11.6864 31.8446 10.6473 31.6839 9.65834 31.35C9.00249 31.0778 8.40965 30.6736 7.91667 30.1625C7.39115 29.6539 6.99017 29.0307 6.74501 28.3417C6.35844 27.384 6.14404 26.3656 6.11167 25.3334C6.11167 23.75 6.01667 23.1642 6.01667 19C6.01667 14.8359 6.01667 14.25 6.11167 12.6667C6.11877 11.6392 6.30634 10.6209 6.66584 9.65835C6.94458 8.99005 7.37242 8.39431 7.91667 7.91669C8.39771 7.37229 8.99221 6.93992 9.65834 6.65002C10.6235 6.30176 11.6407 6.11973 12.6667 6.11169C14.25 6.11169 14.8358 6.01669 19 6.01669C23.1642 6.01669 23.75 6.01669 25.3333 6.11169C26.3384 6.12321 27.3342 6.30524 28.2783 6.65002C28.9979 6.91705 29.6436 7.35119 30.1625 7.91669C30.6814 8.40305 31.0868 8.99768 31.35 9.65835C31.7019 10.6225 31.884 11.6403 31.8883 12.6667C31.9675 14.25 31.9833 14.8359 31.9833 19C31.9833 23.1642 31.9675 23.75 31.8883 25.3334ZM19 10.8775C17.3942 10.8806 15.8254 11.3597 14.4917 12.2541C13.1581 13.1485 12.1194 14.4182 11.5071 15.9026C10.8947 17.3871 10.7362 19.0198 11.0513 20.5943C11.3665 22.1689 12.1414 23.6147 13.278 24.7491C14.4145 25.8834 15.8619 26.6555 17.437 26.9676C19.0122 27.2797 20.6446 27.1179 22.1278 26.5027C23.6111 25.8875 24.8787 24.8464 25.7705 23.511C26.6624 22.1756 27.1383 20.6058 27.1383 19C27.1404 17.9314 26.9312 16.873 26.5228 15.8855C26.1144 14.8981 25.5147 14.0011 24.7584 13.2463C24.002 12.4914 23.1039 11.8935 22.1157 11.487C21.1274 11.0805 20.0686 10.8733 19 10.8775V10.8775ZM19 24.2725C17.9572 24.2725 16.9378 23.9633 16.0708 23.3839C15.2037 22.8046 14.5279 21.9811 14.1288 21.0177C13.7298 20.0543 13.6254 18.9942 13.8288 17.9714C14.0323 16.9486 14.5344 16.0092 15.2718 15.2718C16.0092 14.5344 16.9486 14.0323 17.9714 13.8288C18.9942 13.6254 20.0543 13.7298 21.0177 14.1289C21.9811 14.5279 22.8046 15.2037 23.3839 16.0708C23.9633 16.9378 24.2725 17.9572 24.2725 19C24.2725 19.6924 24.1361 20.378 23.8712 21.0177C23.6062 21.6574 23.2178 22.2386 22.7282 22.7282C22.2386 23.2178 21.6574 23.6062 21.0177 23.8712C20.378 24.1361 19.6924 24.2725 19 24.2725V24.2725Z" fill="#FFFEEB"/>
</svg>
