<svg width="38" height="38" viewBox="0 0 38 38" fill="none" xmlns="http://www.w3.org/2000/svg">
<path d="M27.7083 14.2484C26.2908 14.2478 24.8953 14.5984 23.6464 15.2689C23.5324 14.9688 23.3299 14.7104 23.0655 14.5281C22.8012 14.3458 22.4877 14.2483 22.1667 14.2484H15.8333C15.6254 14.2483 15.4194 14.2892 15.2273 14.3687C15.0351 14.4482 14.8605 14.5649 14.7135 14.7119C14.5664 14.859 14.4498 15.0336 14.3703 15.2257C14.2908 15.4179 14.2499 15.6238 14.25 15.8318V34.8318C14.2499 35.0397 14.2908 35.2457 14.3703 35.4378C14.4498 35.63 14.5664 35.8046 14.7135 35.9516C14.8605 36.0987 15.0351 36.2153 15.2273 36.2948C15.4194 36.3743 15.6254 36.4152 15.8333 36.4151H22.1667C22.3746 36.4152 22.5806 36.3743 22.7727 36.2948C22.9649 36.2153 23.1395 36.0987 23.2865 35.9516C23.4336 35.8046 23.5502 35.63 23.6297 35.4378C23.7092 35.2457 23.7501 35.0397 23.75 34.8318V26.1234C23.75 25.7035 23.9168 25.3008 24.2137 25.0038C24.5107 24.7069 24.9134 24.5401 25.3333 24.5401C25.7533 24.5401 26.156 24.7069 26.4529 25.0038C26.7499 25.3008 26.9167 25.7035 26.9167 26.1234V34.8318C26.9165 35.0397 26.9574 35.2457 27.0369 35.4378C27.1165 35.63 27.2331 35.8046 27.3801 35.9516C27.5272 36.0987 27.7018 36.2153 27.8939 36.2948C28.0861 36.3743 28.292 36.4152 28.5 36.4151H34.8333C35.0413 36.4152 35.2472 36.3743 35.4394 36.2948C35.6315 36.2153 35.8061 36.0987 35.9532 35.9516C36.1002 35.8046 36.2169 35.63 36.2964 35.4378C36.3759 35.2457 36.4168 35.0397 36.4167 34.8318V22.9568C36.4138 20.6481 35.4954 18.4347 33.8629 16.8022C32.2304 15.1697 30.017 14.2513 27.7083 14.2484V14.2484ZM33.25 33.2484H30.0833V26.1234C30.0833 24.8637 29.5829 23.6555 28.6921 22.7647C27.8013 21.8739 26.5931 21.3734 25.3333 21.3734C24.0736 21.3734 22.8654 21.8739 21.9746 22.7647C21.0838 23.6555 20.5833 24.8637 20.5833 26.1234V33.2484H17.4167V17.4151H20.5833V18.5284C20.5835 18.8565 20.6856 19.1764 20.8754 19.444C21.0652 19.7115 21.3334 19.9136 21.643 20.0222C21.9525 20.1308 22.2882 20.1407 22.6036 20.0503C22.9189 19.96 23.1985 19.774 23.4036 19.518C24.1142 18.6155 25.0888 17.9575 26.1915 17.6358C27.2941 17.314 28.4697 17.3447 29.5541 17.7234C30.6384 18.1021 31.5775 18.81 32.2401 19.7482C32.9027 20.6864 33.2558 21.8082 33.25 22.9568V33.2484ZM11.0833 14.2484H4.75C4.54204 14.2483 4.3361 14.2892 4.14394 14.3687C3.95179 14.4482 3.7772 14.5649 3.63015 14.7119C3.4831 14.859 3.36648 15.0336 3.28695 15.2257C3.20742 15.4179 3.16655 15.6238 3.16667 15.8318V34.8318C3.16655 35.0397 3.20742 35.2457 3.28694 35.4378C3.36647 35.63 3.48309 35.8046 3.63014 35.9516C3.77719 36.0987 3.95179 36.2153 4.14394 36.2948C4.33609 36.3743 4.54204 36.4152 4.75 36.4151H11.0833C11.2913 36.4152 11.4972 36.3743 11.6894 36.2948C11.8815 36.2153 12.0561 36.0987 12.2032 35.9516C12.3502 35.8046 12.4669 35.63 12.5464 35.4378C12.6259 35.2457 12.6668 35.0397 12.6667 34.8318V15.8318C12.6668 15.6238 12.6259 15.4179 12.5464 15.2257C12.4669 15.0336 12.3502 14.859 12.2032 14.7119C12.0561 14.5649 11.8815 14.4482 11.6894 14.3687C11.4972 14.2892 11.2913 14.2483 11.0833 14.2484V14.2484ZM9.5 33.2484H6.33333V17.4151H9.5V33.2484ZM7.93986 2.44152C7.24693 2.40004 6.55281 2.49994 5.8997 2.73514C5.24659 2.97034 4.64815 3.33593 4.14076 3.80967C3.63337 4.28341 3.22765 4.8554 2.94826 5.49086C2.66887 6.12632 2.52165 6.81197 2.51556 7.50611C2.50947 8.20026 2.64464 8.88838 2.91283 9.52865C3.18103 10.1689 3.57666 10.7479 4.07565 11.2305C4.57465 11.7131 5.16659 12.0891 5.81547 12.3357C6.46435 12.5824 7.15662 12.6944 7.85017 12.6651H7.89501C8.58977 12.7064 9.28565 12.6055 9.94013 12.3688C10.5946 12.132 11.1939 11.7643 11.7015 11.2881C12.2091 10.8119 12.6142 10.2372 12.8921 9.5991C13.1701 8.96103 13.315 8.27298 13.3181 7.577C13.3211 6.88102 13.1822 6.19172 12.9099 5.55123C12.6376 4.91075 12.2375 4.33251 11.7341 3.85187C11.2307 3.37122 10.6347 2.99826 9.98229 2.75577C9.32991 2.51327 8.63494 2.40635 7.93985 2.44152H7.93986ZM7.89502 9.49844H7.85017C7.57636 9.53168 7.2986 9.506 7.03553 9.42311C6.77245 9.34022 6.53015 9.20204 6.32485 9.01784C6.11956 8.83363 5.95602 8.60766 5.84521 8.35507C5.7344 8.10249 5.67889 7.82913 5.68238 7.55333C5.68238 6.372 6.56836 5.60817 7.93986 5.60817C8.21647 5.5713 8.49776 5.59413 8.7648 5.67512C9.03184 5.75611 9.27843 5.89339 9.48794 6.07771C9.69746 6.26203 9.86505 6.4891 9.97941 6.74364C10.0938 6.99818 10.1523 7.27428 10.151 7.55333C10.151 8.73464 9.26497 9.49844 7.89502 9.49844Z" fill="#FFFEEB"/>
</svg>
